<?xml version="1.0" encoding="utf-8"?>
<!-- Generator: Adobe Illustrator 22.0.0, SVG Export Plug-In . SVG Version: 6.00 Build 0)  -->
<svg version="1.1" id="Слой_1" xmlns="http://www.w3.org/2000/svg" xmlns:xlink="http://www.w3.org/1999/xlink" x="0px" y="0px"
	 viewBox="0 0 37 33" style="enable-background:new 0 0 37 33;" xml:space="preserve">
<style type="text/css">
	.st0{fill:#FF0000;}
</style>
<g>
	<path class="st0" d="M18.5,28.9c-0.3,0-0.6-0.1-0.8-0.3C5.8,21.7,5.3,15,5.3,13.5c0,0,0,0,0-0.1c0-4.2,3.4-7.6,7.7-7.6
		c2.1,0,4.1,0.8,5.5,2.3c1.4-1.5,3.4-2.3,5.5-2.3c4.2,0,7.6,3.4,7.7,7.6c0,1-0.1,8.1-12.3,15.2c-0.1,0.1-0.2,0.1-0.4,0.2
		c0,0,0,0,0,0C18.8,28.9,18.6,28.9,18.5,28.9z"/>
	<path d="M24,7.4c3.4,0,6.2,2.7,6.2,6.1c0,0,0.7,6.8-11.7,13.9l0,0c0,0,0,0,0,0c0,0,0,0,0,0v0C6.8,20.6,6.8,14.2,6.8,13.5
		c0,0,0,0,0-0.1c0-3.4,2.8-6.1,6.2-6.1c2.4,0,4.5,1.4,5.5,3.4C19.5,8.7,21.6,7.4,24,7.4 M24,4.4c-2,0-3.9,0.7-5.5,1.8
		C16.9,5,15,4.4,13,4.4c-5.1,0-9.2,4.1-9.2,9.1c0,0,0,0.1,0,0.1c0,1.8,0.7,9.2,13.1,16.4c0,0,0,0,0,0c0.3,0.2,0.6,0.3,1,0.4
		c0.2,0,0.4,0.1,0.6,0.1c0.3,0,0.5,0,0.8-0.1c0.3-0.1,0.6-0.2,0.8-0.4c12.8-7.4,13.1-15,13-16.5C33.1,8.4,29,4.4,24,4.4L24,4.4z"/>
</g>
</svg>
