<?xml version="1.0" standalone="no"?>
<!DOCTYPE svg PUBLIC "-//W3C//DTD SVG 20010904//EN"
 "http://www.w3.org/TR/2001/REC-SVG-20010904/DTD/svg10.dtd">
<svg version="1.0" xmlns="http://www.w3.org/2000/svg"
 width="19.000000pt" height="46.000000pt" viewBox="0 0 19.000000 46.000000"
 preserveAspectRatio="xMidYMid meet">
<metadata>
Created by potrace 1.16, written by Peter Selinger 2001-2019
</metadata>
<g transform="translate(0.000000,46.000000) scale(0.100000,-0.100000)"
fill="#000000" stroke="none">
<path d="M21 356 c-15 -17 -11 -162 4 -159 6 2 13 29 16 60 4 37 6 3 7 -94 2
-145 3 -153 22 -153 17 0 20 8 23 92 l3 93 2 -92 c2 -86 4 -93 22 -93 19 0 20
7 22 153 1 97 3 131 7 94 8 -80 25 -77 29 5 4 97 -4 108 -82 108 -42 0 -67 -5
-75 -14z"/>
</g>
</svg>
